<svg width="477.352" height="112.086" xmlns="http://www.w3.org/2000/svg"><title>Layer 1</title><g stroke="null" fill="#FFF"><path d="M96.052 110.186v-64.8l-24.1 64.8h-14.5l-24.1-64.8v64.8H.752V2.386h45.1l18.9 51.7 18.9-51.7h45.1v107.8h-32.7zm100.4 1.9c-8.4 0-16.2-1.3-23.5-4-7.3-2.7-13.5-6.5-18.8-11.4-5.3-4.9-9.4-10.8-12.4-17.6-3-6.8-4.5-14.4-4.5-22.7 0-8.3 1.5-15.9 4.5-22.7 3-6.8 7.2-12.7 12.4-17.6 5.3-4.9 11.6-8.7 18.8-11.4 7.3-2.7 15.1-4 23.5-4 7.1 0 13.3.9 18.7 2.8 5.3 1.9 10 4.3 14 7.3s7.3 6.3 9.9 10.1c2.6 3.8 4.8 7.5 6.4 11.1l-28.1 13.1c-.6-2-1.6-4-3-6-1.3-1.9-2.9-3.6-4.8-5-1.8-1.4-3.9-2.5-6.1-3.4-2.3-.9-4.6-1.3-6.9-1.3-3.9 0-7.4.7-10.7 2.1-3.2 1.4-6 3.3-8.3 5.7-2.3 2.4-4.1 5.3-5.3 8.6-1.2 3.3-1.9 6.8-1.9 10.6s.6 7.3 1.9 10.6c1.2 3.3 3 6.1 5.3 8.6 2.3 2.4 5.1 4.3 8.3 5.7 3.2 1.4 6.8 2.1 10.7 2.1 2.4 0 4.7-.4 6.9-1.3 2.3-.9 4.3-2 6.1-3.4 1.8-1.4 3.4-3 4.8-4.9 1.3-1.9 2.3-3.9 3-6.1l28.1 12.9c-1.6 3.6-3.7 7.2-6.4 11-2.6 3.8-5.9 7.2-9.9 10.2-3.9 3-8.6 5.5-14 7.4-5.4 2-11.6 2.9-18.7 2.9zm129.4-1.9l-3.9-12.6h-38.8l-3.9 12.6h-37l39.7-107.8h41l39.7 107.8h-36.8zm-23.3-75.8l-10.7 34.7h21.3l-10.6-34.7z"/><path d="M440.552 110.186l-3.9-12.6h-38.8l-3.9 12.6h-37l39.7-107.8h41l39.7 107.8h-36.8zm-23.3-75.8l-10.7 34.7h21.3l-10.6-34.7z"/></g></svg>